<?xml version="1.0" encoding="utf-8"?>
<!-- Generator: Adobe Illustrator 24.0.2, SVG Export Plug-In . SVG Version: 6.00 Build 0)  -->
<svg version="1.1" id="Capa_1" xmlns="http://www.w3.org/2000/svg" xmlns:xlink="http://www.w3.org/1999/xlink" x="0px" y="0px"
	 viewBox="0 0 502 500" style="enable-background:new 0 0 502 500;" xml:space="preserve">
<style type="text/css">
	.st0{fill:#3B5AD3;}
</style>
<path class="st0" d="M495.9,203.92c-1,1.22-2.02,2.68-3.24,3.92c-19.73,20.04-39.44,40.1-59.28,60.03
	c-2.43,2.44-3.46,4.86-3.45,8.32c0.1,49,0.02,98.01,0.16,147.01c0.01,4.17-0.67,5.67-5.32,5.67
	c-116.24-0.14-232.47-0.14-348.71-0.01c-4.28,0-5.16-1.22-5.16-5.28c0.1-105.2,0.11-268.1,0.02-383.92C70.91,21.06,55.84,6,37.24,6
	h0C18.64,6,3.56,21.08,3.55,39.68c-0.01,123.85-0.01,296.07,0,409.83c0,27.24,19.23,46.47,46.37,46.48c72.01,0.01,144.01,0,216.02,0
	c62.1,0,124.2-0.01,186.3,0.01c7.54,0,14.74-1.22,21.2-5.4c7.47-3.39,13.11-8.73,17-15.95c5.36-7.28,6.99-15.66,6.99-24.45
	c0.02-80.67,0.02-161.34-0.02-242.01C497.4,206.95,498.23,205.38,495.9,203.92z M482.99,478.89L482.99,478.89
	c0.17-0.28,0.36-0.56,0.54-0.84C483.35,478.33,483.15,478.61,482.99,478.89z"/>
<g>
	<path class="st0" d="M386.75,114.99c-42.04-0.01-84.08-0.01-126.12-0.01c0-0.01,0-0.01,0-0.02c-41.94,0-83.88-0.01-125.83,0.01
		c-9.63,0-15.24,5.94-14.43,15.5c1.86,21.81,3.89,43.61,5.83,65.42c2.44,27.38,4.86,54.77,7.3,82.15
		c2.71,30.41,5.42,60.83,8.17,91.24c0.46,5.07,0.76,10.18,2.65,15.02c2.78,7.13,6.4,9.67,14.01,9.67c48.72,0,97.44,0,146.16,0
		c19.94,0,39.88-0.05,59.82,0.03c5.3,0.02,8.95-2.33,11.43-6.85c1.04-1.91,1.75-3.93,2.29-6.03c1.3-4.98,1.43-10.09,1.89-15.17
		c2.48-27.38,4.96-54.76,7.41-82.14c2.08-23.28,4.1-46.56,6.17-69.83c2.48-27.87,5.05-55.74,7.48-83.61
		C401.8,121.02,396.13,114.99,386.75,114.99z M180.81,367.27c-6.29,0.29-11.22-4.61-11.62-11.48c-2.37-41.16-4.75-82.33-7.13-123.49
		c-1.37-23.62-2.74-47.24-4.12-70.86c-0.27-4.64,1.48-8.29,5.44-10.67c3.75-2.25,7.67-2.21,11.45,0.04c3.69,2.2,5.29,5.63,5.53,9.82
		c1.02,18.03,2.05,36.07,3.09,54.1c2.08,35.87,4.17,71.74,6.25,107.61c0.63,10.78,1.23,21.56,2,35.18
		C191.88,361.65,187.32,366.97,180.81,367.27z M244.05,355.17c0,6.48-3.84,11.3-9.7,12.14c-5.41,0.77-10.65-2.61-12.3-7.91
		c-0.51-1.64-0.42-3.3-0.43-4.97c-0.01-32.12-0.01-64.25-0.01-96.37c0-32.32-0.01-64.64,0.01-96.96c0-7.26,4.82-12.24,11.53-12.05
		c5.94,0.17,10.52,4.76,10.84,11.02c0.13,2.55,0.03,5.11,0.03,7.66C244.05,230.22,244.05,292.7,244.05,355.17z M303.04,204.91
		c0,50-0.02,100-0.01,150c0,5.18-1.85,9.21-6.68,11.46c-7.16,3.33-15.41-1.72-15.71-9.62c-0.14-3.63-0.04-7.27-0.04-10.9
		c0-29.27,0-58.55,0-87.82c0.01-32.42-0.01-64.83,0.02-97.25c0.01-7.49,5.56-12.48,12.74-11.61c5.65,0.68,9.64,5.51,9.66,11.84
		C303.05,175.64,303.04,190.27,303.04,204.91z M364.77,194.39c-1.27,21.76-2.57,43.51-3.83,65.27c-1.85,32.05-3.66,64.1-5.52,96.15
		c-0.37,6.29-4.15,10.53-9.93,11.38c-4.93,0.72-9.97-2.42-11.85-7.29c-1-2.59-0.48-5.24-0.51-7.87c1.91-32.74,3.84-65.47,5.74-98.2
		c1.46-25.09,2.87-50.18,4.31-75.27c0.35-6.17,0.73-12.35,1.11-18.52c0.39-6.4,5.33-10.99,11.61-10.82
		c6.12,0.17,11.05,5.31,10.76,11.66C366.17,172.05,365.42,183.22,364.77,194.39z"/>
	<path class="st0" d="M407.22,57.03c-1.17-7.07-2.13-14.17-3.32-21.23c-1.18-7.04-7.74-11.8-14.86-10.76
		c-9.42,1.37-18.82,2.88-28.23,4.32c-13.39,2.04-26.79,4.02-40.16,6.16c-2.33,0.37-3.12-0.33-3.28-2.51
		c-0.14-1.86-0.51-3.69-0.77-5.54C314.38,11.53,301.52,0.06,285.85,0c-1.47,0.11-2.95,0.13-4.4,0.35c-23,3.47-45.99,7-68.99,10.45
		c-13.18,1.98-23.24,11-26.4,23.64c-1.58,6.32-0.49,12.51,0.65,18.68c0.43,2.3-0.23,2.77-2.34,3.08
		c-22.81,3.4-45.61,6.85-68.4,10.41c-8.04,1.26-12.54,7.8-11.26,15.76c0.95,5.91,1.77,11.84,2.73,17.75
		c0.79,4.83-0.21,4.19,4.76,3.44c23.87-3.58,47.74-7.24,71.61-10.87c26.58-4.04,53.17-8.07,79.75-12.11
		c23.77-3.62,47.54-7.26,71.31-10.87c23.58-3.58,47.16-7.13,70.74-10.66C406.92,58.85,407.47,58.55,407.22,57.03z M297.45,39.02
		c-11.64,1.71-23.28,3.51-34.91,5.28c-17.74,2.7-35.49,5.38-53.23,8.1c-4.03,0.62-4.03,0.67-4.6-3.41
		c-0.34-2.43-0.68-4.86-0.95-6.82c-0.07-6.85,4.51-11.98,11.33-13.04c9.21-1.43,18.42-2.8,27.63-4.19
		c13.58-2.05,27.16-4.07,40.73-6.17c6.92-1.07,13.01,2.92,14.49,9.77c0.58,2.68,0.76,5.45,1.36,8.12
		C299.71,38.44,299.01,38.79,297.45,39.02z"/>
</g>
</svg>
