<?xml version="1.0" encoding="utf-8"?>
<!-- Generator: Adobe Illustrator 24.0.2, SVG Export Plug-In . SVG Version: 6.00 Build 0)  -->
<svg version="1.1" id="Capa_1" xmlns="http://www.w3.org/2000/svg" xmlns:xlink="http://www.w3.org/1999/xlink" x="0px" y="0px"
	 viewBox="0 0 502 500" style="enable-background:new 0 0 502 500;" xml:space="preserve">
<style type="text/css">
	.st0{fill:#3B5AD3;}
</style>
<g>
	<path class="st0" d="M495.9,203.92c-1,1.22-2.02,2.68-3.24,3.92c-19.73,20.04-39.44,40.1-59.28,60.03
		c-2.43,2.44-3.46,4.86-3.45,8.32c0.1,49,0.02,98.01,0.16,147.01c0.01,4.17-0.67,5.67-5.32,5.67
		c-116.24-0.14-232.47-0.14-348.71-0.01c-4.28,0-5.16-1.22-5.16-5.28c0.11-116.4,0.11-232.81-0.01-349.21
		c0-4.12,0.98-5.22,5.17-5.21c49.18,0.16,98.37,0.06,147.55,0.18c3.5,0.01,5.9-1.06,8.3-3.48c20.05-20.22,40.2-40.32,60.3-60.49
		c0.78-0.78,2.14-1.3,1.85-3.33c-1.7,0-3.39,0-5.09,0c-79.97,0-159.93-0.02-239.9,0.01C23.03,2.04,3.56,21.61,3.56,47.76
		c-0.02,133.92-0.02,267.84,0,401.75c0,27.24,19.23,46.47,46.37,46.48c72.01,0.01,144.01,0,216.02,0c62.1,0,124.2-0.01,186.3,0.01
		c7.54,0,14.74-1.22,21.2-5.4c7.47-3.39,13.11-8.73,17-15.95c5.36-7.28,6.99-15.66,6.99-24.45c0.02-80.67,0.02-161.34-0.02-242.01
		C497.4,206.95,498.23,205.38,495.9,203.92z M482.99,478.89L482.99,478.89c0.17-0.28,0.36-0.56,0.54-0.84
		C483.35,478.33,483.15,478.61,482.99,478.89z"/>
	<path class="st0" d="M155.17,254.47c-1.06,1.07-4.61,2.31-0.8,4.56c16.34,9.65,30.94,21.61,45.11,34.13
		c6.94,7.5,13.88,15,20.81,22.5c7.66,10.1,15.2,20.29,22.11,31.51c9.87-9.92,19.35-19.43,28.8-28.96
		c15.92-16.05,31.82-32.13,47.73-48.19c2.86-2.13,5.33-4.65,7.48-7.48c2.92-2.33,5.61-4.89,7.88-7.87
		c5.88-5.15,11.34-10.74,16.58-16.53c0.35-0.09,0.55-0.32,0.61-0.68c-0.12-0.22-0.23-0.45-0.31-0.67c-0.25-0.66-0.34-1.31-0.32-1.94
		c-0.02,0.64,0.07,1.28,0.32,1.94c0.08,0.22,0.19,0.44,0.31,0.67c2.67-2.02,5.08-4.3,7-7.06c1.6-0.81,2.73-2.1,3.66-3.61
		c4.8-4.11,9.28-8.53,13.34-13.37c0.83-0.18,1.31-0.71,1.53-1.5c3.01-2.3,5.66-4.95,7.98-7.94c17.42-17.31,34.76-34.69,52.32-51.85
		c2.9-2.83,3.26-4.9,1.41-8.48c-18.88-36.45-46.46-64.08-82.93-82.97c-3.62-1.87-5.59-1.57-8.46,1.32
		c-48.74,48.97-97.62,97.82-146.46,146.69C185.6,223.92,170.34,239.14,155.17,254.47z M339.13,244.14c0.22-0.04,0.43-0.09,0.64-0.15
		C339.56,244.05,339.35,244.1,339.13,244.14z"/>
	<path class="st0" d="M377.51,33.56c35.97,21.85,65.33,50.42,87.45,86.28c1.93,3.12,2.98,1.65,4.58,0.04
		c8.47-8.53,16.93-17.06,25.5-25.49c1.79-1.76,2.59-3.58,2.39-6.09c-0.73-9.52-1.86-18.99-4.21-28.26
		c-5.34-21.09-15.23-38.75-36.35-47.89c-14.78-6.4-30.27-9.43-46.29-10.13c-2.08-0.09-3.64,0.45-5.16,1.99
		c-9.46,9.53-19.03,18.95-28.62,28.47C377.32,33.28,377.38,33.48,377.51,33.56z"/>
	<path class="st0" d="M119,383.74c28.09-0.08,56.19-0.04,84.28-0.08c2.4,0,12.62-8.72,12.8-10.86c0.05-0.62-0.35-1.32-0.66-1.92
		c-4.53-8.97-9.1-17.91-15.49-25.76c-3.65-6.12-8.1-11.62-13.13-16.65c-0.4-0.43-0.79-0.86-1.19-1.29
		c-2.67-3.67-5.74-6.94-9.42-9.63c-6.11-6.66-13.08-12.3-20.66-17.19c-4.07-3.42-8.45-6.37-13.29-8.61
		c-0.52-0.57-0.97-0.48-1.37,0.14c0,0-0.04,0-0.04,0c0.03-0.94-0.4-1.54-1.31-1.79c-1.76-1.08-3.46-2.25-5.27-3.22
		c-7.96-4.23-7.97-4.21-13.93,2.63c-0.11,0.12-0.13,0.32-0.19,0.48c-2.29,1.66-4.4,3.22-4.39,6.63c0.09,27.91,0.08,55.83,0,83.74
		C115.72,382.89,116.43,383.75,119,383.74z M182.82,330.96c0.09-0.21,0.26-0.45,0.32-0.65
		C183.08,330.51,182.91,330.75,182.82,330.96C182.82,330.96,182.82,330.96,182.82,330.96z M183.15,330.28
		c0.02-0.07,0.02-0.13,0-0.18C183.17,330.15,183.17,330.21,183.15,330.28z"/>
</g>
</svg>
